# xmcd
#
# Track frame offsets: 
#        150
#        17030
#        32407
#        49537
#        70170
#        85730
#        103642
#        119955
#        135930
#        155002
#        171275
#
# Disc length: 2510 seconds
#
# Revision: 3
# Processed by: cddbd v1.5.2PL0 Copyright (c) Steve Scherf et al.
# Submitted via: ExactAudioCopy v1.3
#
DISCID=8a09cc0b
DTITLE=K.D. Lang - Recollection [CD 03 - K.D. Lang Rarities)
DYEAR=2010
DGENRE=Pop
TTITLE0=I'm Sitting On Top Of The World
TTITLE1=Sexuality
TTITLE2=Skylark
TTITLE3=Helpless (Live)
TTITLE4=Western Stars (Live)
TTITLE5=Wash Me Clean (Live)
TTITLE6=Thread (Live)
TTITLE7=Once In A While (Live)
TTITLE8=I Dream Of Spring (Live)
TTITLE9=Smoke Rings (Live)
TTITLE10=The Right To Love (Live)
EXTD=
EXTT0=
EXTT1=
EXTT2=
EXTT3=
EXTT4=
EXTT5=
EXTT6=
EXTT7=
EXTT8=
EXTT9=
EXTT10=
PLAYORDER=
